<svg width="2582" height="1207" viewBox="0 0 2582 1207" fill="none" xmlns="http://www.w3.org/2000/svg">
<path d="M2694.5 758L2188.07 710.359C2110.51 703.064 2035.28 739.249 1992.57 804.392L1853 1017.25C1790.32 1112.84 1883 1234 1991.66 1198.52V1198.52C2117.3 1157.5 2095.48 973.509 1963.74 963.011L1712.05 942.956C1695.77 941.659 1679.38 942.694 1663.4 946.031L1029.9 1078.25C869.3 1111.76 713.579 1003.3 689.34 841.046L655.972 617.679C648.772 569.481 684.907 525.661 733.594 523.55V523.55C832.677 519.254 852.991 661.709 756.657 685.279L262.291 806.237C126.34 839.5 38.6093 666.421 145.81 576.436L152.62 570.72C236.966 499.919 204.987 363.285 97.9814 337.269L-1283 1.51786L137.575 155.325C224.483 164.734 312.25 162.708 398.631 149.297L1031.25 51.0818C1238.8 18.8592 1451.23 52.8066 1638.4 148.109L3061.13 872.518" stroke="#553C65" stroke-width="3" stroke-linecap="round" stroke-dasharray="12 12"/>
</svg>
