<svg width="40" height="34" viewBox="0 0 40 34" fill="none" xmlns="http://www.w3.org/2000/svg">
<path d="M17.5903 2.33075C18.0139 1.54715 17.6944 0.584258 16.8819 0.179178C16.0694 -0.225901 15.0556 0.0795683 14.6319 0.856524L8.16667 12.7499H2.22222C0.993056 12.7499 0 13.6995 0 14.8749C0 16.0503 0.993056 16.9999 2.22222 16.9999L5.82639 30.7793C6.31944 32.6719 8.09722 34 10.1389 34H29.8611C31.9028 34 33.6806 32.6719 34.1736 30.7793L37.7778 16.9999C39.0069 16.9999 40 16.0503 40 14.8749C40 13.6995 39.0069 12.7499 37.7778 12.7499H31.8333L25.3681 0.856524C24.9444 0.0795683 23.9375 -0.225901 23.1181 0.179178C22.2986 0.584258 21.9861 1.54715 22.4097 2.33075L28.0764 12.7499H11.9236L17.5903 2.33075ZM13.3333 20.1875V26.5625C13.3333 27.1469 12.8333 27.625 12.2222 27.625C11.6111 27.625 11.1111 27.1469 11.1111 26.5625V20.1875C11.1111 19.6031 11.6111 19.1249 12.2222 19.1249C12.8333 19.1249 13.3333 19.6031 13.3333 20.1875ZM20 19.1249C20.6111 19.1249 21.1111 19.6031 21.1111 20.1875V26.5625C21.1111 27.1469 20.6111 27.625 20 27.625C19.3889 27.625 18.8889 27.1469 18.8889 26.5625V20.1875C18.8889 19.6031 19.3889 19.1249 20 19.1249ZM28.8889 20.1875V26.5625C28.8889 27.1469 28.3889 27.625 27.7778 27.625C27.1667 27.625 26.6667 27.1469 26.6667 26.5625V20.1875C26.6667 19.6031 27.1667 19.1249 27.7778 19.1249C28.3889 19.1249 28.8889 19.6031 28.8889 20.1875Z" fill="white"/>
</svg>
